<mxfile host="65bd71144e">
    <diagram id="B4c5OdeZnFxXY1j4tQRh" name="Page-1">
        <mxGraphModel dx="1131" dy="449" grid="1" gridSize="10" guides="1" tooltips="1" connect="1" arrows="1" fold="1" page="1" pageScale="1" pageWidth="1654" pageHeight="1169" math="0" shadow="0">
            <root>
                <mxCell id="0"/>
                <mxCell id="1" parent="0"/>
                <mxCell id="13" style="edgeStyle=none;html=1;exitX=0;exitY=0.5;exitDx=0;exitDy=0;entryX=1;entryY=0.5;entryDx=0;entryDy=0;" edge="1" parent="1" source="rxYX9RSnvcoezxCYLgSo-1" target="5">
                    <mxGeometry relative="1" as="geometry"/>
                </mxCell>
                <mxCell id="14" style="edgeStyle=none;html=1;exitX=0;exitY=0.5;exitDx=0;exitDy=0;entryX=0.987;entryY=0.686;entryDx=0;entryDy=0;entryPerimeter=0;" edge="1" parent="1" source="rxYX9RSnvcoezxCYLgSo-1" target="7">
                    <mxGeometry relative="1" as="geometry"/>
                </mxCell>
                <mxCell id="rxYX9RSnvcoezxCYLgSo-1" value="&lt;div&gt;&lt;b&gt;DEFAULT_STATE&lt;br&gt;&lt;/b&gt;&lt;/div&gt;" style="ellipse;whiteSpace=wrap;html=1;" parent="1" vertex="1">
                    <mxGeometry x="777" y="535" width="100" height="100" as="geometry"/>
                </mxCell>
                <mxCell id="rxYX9RSnvcoezxCYLgSo-2" value="" style="curved=1;endArrow=classic;html=1;rounded=0;entryX=0.5;entryY=0;entryDx=0;entryDy=0;exitX=0;exitY=0;exitDx=0;exitDy=0;" parent="1" source="rxYX9RSnvcoezxCYLgSo-1" target="rxYX9RSnvcoezxCYLgSo-1" edge="1">
                    <mxGeometry width="50" height="50" relative="1" as="geometry">
                        <mxPoint x="790" y="550" as="sourcePoint"/>
                        <mxPoint x="817" y="539" as="targetPoint"/>
                        <Array as="points">
                            <mxPoint x="760" y="520"/>
                            <mxPoint x="810" y="490"/>
                        </Array>
                    </mxGeometry>
                </mxCell>
                <mxCell id="rxYX9RSnvcoezxCYLgSo-3" value="&lt;div&gt;space&lt;/div&gt;&lt;div&gt;EOL&lt;/div&gt;&lt;div&gt;tab&lt;br&gt;&lt;/div&gt;" style="text;html=1;strokeColor=none;fillColor=none;align=center;verticalAlign=middle;whiteSpace=wrap;rounded=0;" parent="1" vertex="1">
                    <mxGeometry x="750" y="460" width="60" height="40" as="geometry"/>
                </mxCell>
                <mxCell id="rxYX9RSnvcoezxCYLgSo-8" value="" style="curved=1;endArrow=classic;html=1;rounded=0;exitX=0.089;exitY=0.221;exitDx=0;exitDy=0;exitPerimeter=0;entryX=1;entryY=1;entryDx=0;entryDy=0;" parent="1" source="rxYX9RSnvcoezxCYLgSo-1" target="rxYX9RSnvcoezxCYLgSo-11" edge="1">
                    <mxGeometry width="50" height="50" relative="1" as="geometry">
                        <mxPoint x="650" y="560" as="sourcePoint"/>
                        <mxPoint x="640" y="470" as="targetPoint"/>
                        <Array as="points">
                            <mxPoint x="720" y="520"/>
                        </Array>
                    </mxGeometry>
                </mxCell>
                <mxCell id="rxYX9RSnvcoezxCYLgSo-9" value="'/'" style="text;html=1;strokeColor=none;fillColor=none;align=center;verticalAlign=middle;whiteSpace=wrap;rounded=0;" parent="1" vertex="1">
                    <mxGeometry x="678.88" y="415" width="60" height="30" as="geometry"/>
                </mxCell>
                <mxCell id="rxYX9RSnvcoezxCYLgSo-11" value="" style="ellipse;whiteSpace=wrap;html=1;" parent="1" vertex="1">
                    <mxGeometry x="580" y="260" width="103" height="105" as="geometry"/>
                </mxCell>
                <mxCell id="rxYX9RSnvcoezxCYLgSo-14" value="DIV_OPER" style="ellipse;whiteSpace=wrap;html=1;aspect=fixed;" parent="1" vertex="1">
                    <mxGeometry x="584.12" y="265.12" width="94.76" height="94.76" as="geometry"/>
                </mxCell>
                <mxCell id="rxYX9RSnvcoezxCYLgSo-16" value="COM_ONELINE" style="ellipse;whiteSpace=wrap;html=1;" parent="1" vertex="1">
                    <mxGeometry x="330" y="220" width="103" height="105" as="geometry"/>
                </mxCell>
                <mxCell id="rxYX9RSnvcoezxCYLgSo-24" value="" style="curved=1;endArrow=classic;html=1;rounded=0;exitX=1;exitY=0.5;exitDx=0;exitDy=0;entryX=1;entryY=0;entryDx=0;entryDy=0;" parent="1" source="rxYX9RSnvcoezxCYLgSo-16" target="rxYX9RSnvcoezxCYLgSo-16" edge="1">
                    <mxGeometry width="50" height="50" relative="1" as="geometry">
                        <mxPoint x="433" y="280" as="sourcePoint"/>
                        <mxPoint x="483" y="230" as="targetPoint"/>
                        <Array as="points">
                            <mxPoint x="470" y="260"/>
                            <mxPoint x="450" y="220"/>
                        </Array>
                    </mxGeometry>
                </mxCell>
                <mxCell id="rxYX9RSnvcoezxCYLgSo-25" value="ANY - {'EOL'}" style="text;html=1;strokeColor=none;fillColor=none;align=center;verticalAlign=middle;whiteSpace=wrap;rounded=0;" parent="1" vertex="1">
                    <mxGeometry x="430" y="200" width="80" height="30" as="geometry"/>
                </mxCell>
                <mxCell id="rxYX9RSnvcoezxCYLgSo-26" value="" style="curved=1;endArrow=classic;html=1;rounded=0;exitX=0;exitY=0.5;exitDx=0;exitDy=0;entryX=1;entryY=1;entryDx=0;entryDy=0;" parent="1" source="rxYX9RSnvcoezxCYLgSo-11" target="rxYX9RSnvcoezxCYLgSo-16" edge="1">
                    <mxGeometry width="50" height="50" relative="1" as="geometry">
                        <mxPoint x="460" y="360" as="sourcePoint"/>
                        <mxPoint x="510" y="310" as="targetPoint"/>
                        <Array as="points">
                            <mxPoint x="460" y="350"/>
                        </Array>
                    </mxGeometry>
                </mxCell>
                <mxCell id="rxYX9RSnvcoezxCYLgSo-27" value="'/'" style="text;html=1;strokeColor=none;fillColor=none;align=center;verticalAlign=middle;whiteSpace=wrap;rounded=0;" parent="1" vertex="1">
                    <mxGeometry x="471.5" y="305" width="60" height="30" as="geometry"/>
                </mxCell>
                <mxCell id="rxYX9RSnvcoezxCYLgSo-28" value="" style="curved=1;endArrow=classic;html=1;rounded=0;exitX=0.961;exitY=0.693;exitDx=0;exitDy=0;entryX=0.67;entryY=0.031;entryDx=0;entryDy=0;entryPerimeter=0;exitPerimeter=0;" parent="1" source="rxYX9RSnvcoezxCYLgSo-16" target="rxYX9RSnvcoezxCYLgSo-1" edge="1">
                    <mxGeometry width="50" height="50" relative="1" as="geometry">
                        <mxPoint x="560" y="325" as="sourcePoint"/>
                        <mxPoint x="810" y="430" as="targetPoint"/>
                        <Array as="points">
                            <mxPoint x="600" y="220"/>
                            <mxPoint x="800" y="320"/>
                        </Array>
                    </mxGeometry>
                </mxCell>
                <mxCell id="rxYX9RSnvcoezxCYLgSo-29" value="'EOL'" style="text;html=1;strokeColor=none;fillColor=none;align=center;verticalAlign=middle;whiteSpace=wrap;rounded=0;" parent="1" vertex="1">
                    <mxGeometry x="670" y="240" width="60" height="30" as="geometry"/>
                </mxCell>
                <mxCell id="rxYX9RSnvcoezxCYLgSo-31" value="COM_BLOCK" style="ellipse;whiteSpace=wrap;html=1;" parent="1" vertex="1">
                    <mxGeometry x="220" y="375" width="103" height="105" as="geometry"/>
                </mxCell>
                <mxCell id="rxYX9RSnvcoezxCYLgSo-32" value="" style="curved=1;endArrow=classic;html=1;rounded=0;exitX=1;exitY=0.5;exitDx=0;exitDy=0;entryX=1;entryY=0;entryDx=0;entryDy=0;" parent="1" source="rxYX9RSnvcoezxCYLgSo-31" target="rxYX9RSnvcoezxCYLgSo-31" edge="1">
                    <mxGeometry width="50" height="50" relative="1" as="geometry">
                        <mxPoint x="323" y="435" as="sourcePoint"/>
                        <mxPoint x="373" y="385" as="targetPoint"/>
                        <Array as="points">
                            <mxPoint x="360" y="415"/>
                            <mxPoint x="340" y="375"/>
                        </Array>
                    </mxGeometry>
                </mxCell>
                <mxCell id="rxYX9RSnvcoezxCYLgSo-33" value="ANY - {'*'}" style="text;html=1;strokeColor=none;fillColor=none;align=center;verticalAlign=middle;whiteSpace=wrap;rounded=0;" parent="1" vertex="1">
                    <mxGeometry x="320" y="355" width="80" height="30" as="geometry"/>
                </mxCell>
                <mxCell id="rxYX9RSnvcoezxCYLgSo-34" value="" style="curved=1;endArrow=classic;html=1;rounded=0;exitX=0;exitY=1;exitDx=0;exitDy=0;entryX=0.974;entryY=0.659;entryDx=0;entryDy=0;entryPerimeter=0;" parent="1" source="rxYX9RSnvcoezxCYLgSo-11" target="rxYX9RSnvcoezxCYLgSo-31" edge="1">
                    <mxGeometry width="50" height="50" relative="1" as="geometry">
                        <mxPoint x="420" y="420" as="sourcePoint"/>
                        <mxPoint x="470" y="370" as="targetPoint"/>
                        <Array as="points">
                            <mxPoint x="400" y="460"/>
                        </Array>
                    </mxGeometry>
                </mxCell>
                <mxCell id="rxYX9RSnvcoezxCYLgSo-35" value="'*'" style="text;html=1;strokeColor=none;fillColor=none;align=center;verticalAlign=middle;whiteSpace=wrap;rounded=0;" parent="1" vertex="1">
                    <mxGeometry x="392.62" y="405" width="60" height="30" as="geometry"/>
                </mxCell>
                <mxCell id="rxYX9RSnvcoezxCYLgSo-38" value="COM_END" style="ellipse;whiteSpace=wrap;html=1;" parent="1" vertex="1">
                    <mxGeometry x="160" y="230" width="103" height="105" as="geometry"/>
                </mxCell>
                <mxCell id="rxYX9RSnvcoezxCYLgSo-41" value="" style="curved=1;endArrow=classic;html=1;rounded=0;exitX=0.5;exitY=0;exitDx=0;exitDy=0;entryX=1;entryY=1;entryDx=0;entryDy=0;" parent="1" source="rxYX9RSnvcoezxCYLgSo-31" target="rxYX9RSnvcoezxCYLgSo-38" edge="1">
                    <mxGeometry width="50" height="50" relative="1" as="geometry">
                        <mxPoint x="270" y="350" as="sourcePoint"/>
                        <mxPoint x="320" y="300" as="targetPoint"/>
                        <Array as="points">
                            <mxPoint x="270" y="350"/>
                            <mxPoint x="260" y="330"/>
                        </Array>
                    </mxGeometry>
                </mxCell>
                <mxCell id="rxYX9RSnvcoezxCYLgSo-42" value="'*'" style="text;html=1;strokeColor=none;fillColor=none;align=center;verticalAlign=middle;whiteSpace=wrap;rounded=0;" parent="1" vertex="1">
                    <mxGeometry x="250" y="335" width="60" height="30" as="geometry"/>
                </mxCell>
                <mxCell id="rxYX9RSnvcoezxCYLgSo-43" value="" style="curved=1;endArrow=classic;html=1;rounded=0;exitX=0.5;exitY=0;exitDx=0;exitDy=0;entryX=0.738;entryY=0.06;entryDx=0;entryDy=0;entryPerimeter=0;" parent="1" source="rxYX9RSnvcoezxCYLgSo-38" target="rxYX9RSnvcoezxCYLgSo-1" edge="1">
                    <mxGeometry width="50" height="50" relative="1" as="geometry">
                        <mxPoint x="230" y="200" as="sourcePoint"/>
                        <mxPoint x="280" y="150" as="targetPoint"/>
                        <Array as="points">
                            <mxPoint x="212" y="150"/>
                            <mxPoint x="880" y="150"/>
                        </Array>
                    </mxGeometry>
                </mxCell>
                <mxCell id="rxYX9RSnvcoezxCYLgSo-44" value="'/'" style="text;html=1;strokeColor=none;fillColor=none;align=center;verticalAlign=middle;whiteSpace=wrap;rounded=0;" parent="1" vertex="1">
                    <mxGeometry x="481.12" y="120" width="60" height="30" as="geometry"/>
                </mxCell>
                <mxCell id="rxYX9RSnvcoezxCYLgSo-45" value="" style="curved=1;endArrow=classic;html=1;rounded=0;entryX=0;entryY=0;entryDx=0;entryDy=0;exitX=0;exitY=1;exitDx=0;exitDy=0;" parent="1" source="rxYX9RSnvcoezxCYLgSo-38" target="rxYX9RSnvcoezxCYLgSo-31" edge="1">
                    <mxGeometry width="50" height="50" relative="1" as="geometry">
                        <mxPoint x="380" y="350" as="sourcePoint"/>
                        <mxPoint x="430" y="300" as="targetPoint"/>
                        <Array as="points">
                            <mxPoint x="180" y="350"/>
                            <mxPoint x="200" y="380"/>
                        </Array>
                    </mxGeometry>
                </mxCell>
                <mxCell id="rxYX9RSnvcoezxCYLgSo-46" value="ANY - {'/'}" style="text;html=1;strokeColor=none;fillColor=none;align=center;verticalAlign=middle;whiteSpace=wrap;rounded=0;" parent="1" vertex="1">
                    <mxGeometry x="120" y="355" width="60" height="30" as="geometry"/>
                </mxCell>
                <mxCell id="RRF14F_0tP4bHI7PFCEU-1" value="" style="ellipse;whiteSpace=wrap;html=1;" parent="1" vertex="1">
                    <mxGeometry x="554.38" y="355" width="103" height="105" as="geometry"/>
                </mxCell>
                <mxCell id="RRF14F_0tP4bHI7PFCEU-2" value="ADD_OPER&lt;br&gt;" style="ellipse;whiteSpace=wrap;html=1;aspect=fixed;" parent="1" vertex="1">
                    <mxGeometry x="558.5" y="360.12" width="94.76" height="94.76" as="geometry"/>
                </mxCell>
                <mxCell id="RRF14F_0tP4bHI7PFCEU-3" value="" style="curved=1;endArrow=classic;html=1;rounded=0;exitX=0;exitY=0.5;exitDx=0;exitDy=0;entryX=1;entryY=1;entryDx=0;entryDy=0;" parent="1" source="rxYX9RSnvcoezxCYLgSo-1" target="RRF14F_0tP4bHI7PFCEU-2" edge="1">
                    <mxGeometry width="50" height="50" relative="1" as="geometry">
                        <mxPoint x="480" y="630" as="sourcePoint"/>
                        <mxPoint x="530" y="580" as="targetPoint"/>
                        <Array as="points"/>
                    </mxGeometry>
                </mxCell>
                <mxCell id="RRF14F_0tP4bHI7PFCEU-4" value="' + '" style="text;html=1;strokeColor=none;fillColor=none;align=center;verticalAlign=middle;whiteSpace=wrap;rounded=0;" parent="1" vertex="1">
                    <mxGeometry x="661.5" y="459.88" width="60" height="30" as="geometry"/>
                </mxCell>
                <mxCell id="RRF14F_0tP4bHI7PFCEU-5" value="" style="ellipse;whiteSpace=wrap;html=1;" parent="1" vertex="1">
                    <mxGeometry x="357" y="485.12" width="103" height="105" as="geometry"/>
                </mxCell>
                <mxCell id="RRF14F_0tP4bHI7PFCEU-6" value="OPER_CONC" style="ellipse;whiteSpace=wrap;html=1;aspect=fixed;" parent="1" vertex="1">
                    <mxGeometry x="361.12" y="490.24" width="94.76" height="94.76" as="geometry"/>
                </mxCell>
                <mxCell id="RRF14F_0tP4bHI7PFCEU-7" value="NOT_EQ1/3" style="ellipse;whiteSpace=wrap;html=1;" parent="1" vertex="1">
                    <mxGeometry x="207" y="485.12" width="103" height="105" as="geometry"/>
                </mxCell>
                <mxCell id="RRF14F_0tP4bHI7PFCEU-9" value="" style="ellipse;whiteSpace=wrap;html=1;" parent="1" vertex="1">
                    <mxGeometry x="57" y="485.12" width="103" height="105" as="geometry"/>
                </mxCell>
                <mxCell id="RRF14F_0tP4bHI7PFCEU-10" value="EQ_OR_ASSIGN" style="ellipse;whiteSpace=wrap;html=1;aspect=fixed;" parent="1" vertex="1">
                    <mxGeometry x="61.120000000000005" y="490.24" width="94.76" height="94.76" as="geometry"/>
                </mxCell>
                <mxCell id="RRF14F_0tP4bHI7PFCEU-11" value="" style="curved=1;endArrow=classic;html=1;rounded=0;exitX=0.01;exitY=0.619;exitDx=0;exitDy=0;exitPerimeter=0;entryX=1;entryY=1;entryDx=0;entryDy=0;" parent="1" source="rxYX9RSnvcoezxCYLgSo-1" target="RRF14F_0tP4bHI7PFCEU-5" edge="1">
                    <mxGeometry width="50" height="50" relative="1" as="geometry">
                        <mxPoint x="380" y="630" as="sourcePoint"/>
                        <mxPoint x="430" y="580" as="targetPoint"/>
                        <Array as="points">
                            <mxPoint x="530" y="610"/>
                        </Array>
                    </mxGeometry>
                </mxCell>
                <mxCell id="RRF14F_0tP4bHI7PFCEU-12" value="" style="curved=1;endArrow=classic;html=1;rounded=0;exitX=0.033;exitY=0.699;exitDx=0;exitDy=0;exitPerimeter=0;entryX=0.961;entryY=0.721;entryDx=0;entryDy=0;entryPerimeter=0;" parent="1" source="rxYX9RSnvcoezxCYLgSo-1" target="RRF14F_0tP4bHI7PFCEU-7" edge="1">
                    <mxGeometry width="50" height="50" relative="1" as="geometry">
                        <mxPoint x="380" y="630" as="sourcePoint"/>
                        <mxPoint x="430" y="580" as="targetPoint"/>
                        <Array as="points">
                            <mxPoint x="570" y="620"/>
                            <mxPoint x="380" y="610"/>
                        </Array>
                    </mxGeometry>
                </mxCell>
                <mxCell id="RRF14F_0tP4bHI7PFCEU-13" value="" style="curved=1;endArrow=classic;html=1;rounded=0;exitX=0.061;exitY=0.756;exitDx=0;exitDy=0;exitPerimeter=0;entryX=1;entryY=1;entryDx=0;entryDy=0;" parent="1" source="rxYX9RSnvcoezxCYLgSo-1" target="RRF14F_0tP4bHI7PFCEU-9" edge="1">
                    <mxGeometry width="50" height="50" relative="1" as="geometry">
                        <mxPoint x="420" y="630" as="sourcePoint"/>
                        <mxPoint x="470" y="580" as="targetPoint"/>
                        <Array as="points">
                            <mxPoint x="580" y="640"/>
                            <mxPoint x="360" y="630"/>
                            <mxPoint x="210" y="600"/>
                        </Array>
                    </mxGeometry>
                </mxCell>
                <mxCell id="RRF14F_0tP4bHI7PFCEU-14" value="'.'" style="text;html=1;strokeColor=none;fillColor=none;align=center;verticalAlign=middle;whiteSpace=wrap;rounded=0;" parent="1" vertex="1">
                    <mxGeometry x="460" y="565" width="60" height="30" as="geometry"/>
                </mxCell>
                <mxCell id="RRF14F_0tP4bHI7PFCEU-15" value="'!'" style="text;html=1;strokeColor=none;fillColor=none;align=center;verticalAlign=middle;whiteSpace=wrap;rounded=0;" parent="1" vertex="1">
                    <mxGeometry x="410" y="590.12" width="60" height="30" as="geometry"/>
                </mxCell>
                <mxCell id="RRF14F_0tP4bHI7PFCEU-16" value="'='" style="text;html=1;strokeColor=none;fillColor=none;align=center;verticalAlign=middle;whiteSpace=wrap;rounded=0;" parent="1" vertex="1">
                    <mxGeometry x="290" y="595" width="60" height="30" as="geometry"/>
                </mxCell>
                <mxCell id="RRF14F_0tP4bHI7PFCEU-17" value="NOT_EQ2/3" style="ellipse;whiteSpace=wrap;html=1;" parent="1" vertex="1">
                    <mxGeometry x="207" y="660" width="103" height="105" as="geometry"/>
                </mxCell>
                <mxCell id="RRF14F_0tP4bHI7PFCEU-18" value="" style="curved=1;endArrow=classic;html=1;rounded=0;exitX=0.5;exitY=1;exitDx=0;exitDy=0;entryX=0.5;entryY=0;entryDx=0;entryDy=0;" parent="1" source="RRF14F_0tP4bHI7PFCEU-7" target="RRF14F_0tP4bHI7PFCEU-17" edge="1">
                    <mxGeometry width="50" height="50" relative="1" as="geometry">
                        <mxPoint x="420" y="680" as="sourcePoint"/>
                        <mxPoint x="470" y="630" as="targetPoint"/>
                        <Array as="points"/>
                    </mxGeometry>
                </mxCell>
                <mxCell id="RRF14F_0tP4bHI7PFCEU-19" value="" style="ellipse;whiteSpace=wrap;html=1;" parent="1" vertex="1">
                    <mxGeometry x="207" y="820" width="103" height="105" as="geometry"/>
                </mxCell>
                <mxCell id="RRF14F_0tP4bHI7PFCEU-20" value="NOT_EQ" style="ellipse;whiteSpace=wrap;html=1;aspect=fixed;" parent="1" vertex="1">
                    <mxGeometry x="211.12" y="825.12" width="94.76" height="94.76" as="geometry"/>
                </mxCell>
                <mxCell id="RRF14F_0tP4bHI7PFCEU-21" value="" style="curved=1;endArrow=classic;html=1;rounded=0;exitX=0.5;exitY=1;exitDx=0;exitDy=0;entryX=0.5;entryY=0;entryDx=0;entryDy=0;" parent="1" source="RRF14F_0tP4bHI7PFCEU-17" target="RRF14F_0tP4bHI7PFCEU-19" edge="1">
                    <mxGeometry width="50" height="50" relative="1" as="geometry">
                        <mxPoint x="420" y="800" as="sourcePoint"/>
                        <mxPoint x="470" y="750" as="targetPoint"/>
                        <Array as="points"/>
                    </mxGeometry>
                </mxCell>
                <mxCell id="RRF14F_0tP4bHI7PFCEU-22" value="'='" style="text;html=1;strokeColor=none;fillColor=none;align=center;verticalAlign=middle;whiteSpace=wrap;rounded=0;" parent="1" vertex="1">
                    <mxGeometry x="220" y="625" width="60" height="30" as="geometry"/>
                </mxCell>
                <mxCell id="RRF14F_0tP4bHI7PFCEU-23" value="'='" style="text;html=1;strokeColor=none;fillColor=none;align=center;verticalAlign=middle;whiteSpace=wrap;rounded=0;" parent="1" vertex="1">
                    <mxGeometry x="220" y="780" width="60" height="30" as="geometry"/>
                </mxCell>
                <mxCell id="RRF14F_0tP4bHI7PFCEU-24" value="EQ2/3" style="ellipse;whiteSpace=wrap;html=1;" parent="1" vertex="1">
                    <mxGeometry x="57" y="660" width="103" height="105" as="geometry"/>
                </mxCell>
                <mxCell id="RRF14F_0tP4bHI7PFCEU-25" value="" style="curved=1;endArrow=classic;html=1;rounded=0;exitX=0.5;exitY=1;exitDx=0;exitDy=0;entryX=0.5;entryY=0;entryDx=0;entryDy=0;" parent="1" target="RRF14F_0tP4bHI7PFCEU-24" edge="1">
                    <mxGeometry width="50" height="50" relative="1" as="geometry">
                        <mxPoint x="108.5" y="590.1200000000001" as="sourcePoint"/>
                        <mxPoint x="320" y="630" as="targetPoint"/>
                        <Array as="points"/>
                    </mxGeometry>
                </mxCell>
                <mxCell id="RRF14F_0tP4bHI7PFCEU-26" value="'='" style="text;html=1;strokeColor=none;fillColor=none;align=center;verticalAlign=middle;whiteSpace=wrap;rounded=0;" parent="1" vertex="1">
                    <mxGeometry x="70" y="625" width="60" height="30" as="geometry"/>
                </mxCell>
                <mxCell id="RRF14F_0tP4bHI7PFCEU-27" value="" style="ellipse;whiteSpace=wrap;html=1;" parent="1" vertex="1">
                    <mxGeometry x="57" y="820" width="103" height="105" as="geometry"/>
                </mxCell>
                <mxCell id="RRF14F_0tP4bHI7PFCEU-28" value="EQ" style="ellipse;whiteSpace=wrap;html=1;aspect=fixed;" parent="1" vertex="1">
                    <mxGeometry x="61.120000000000005" y="825.12" width="94.76" height="94.76" as="geometry"/>
                </mxCell>
                <mxCell id="RRF14F_0tP4bHI7PFCEU-29" value="" style="curved=1;endArrow=classic;html=1;rounded=0;exitX=0.5;exitY=1;exitDx=0;exitDy=0;entryX=0.5;entryY=0;entryDx=0;entryDy=0;" parent="1" target="RRF14F_0tP4bHI7PFCEU-27" edge="1">
                    <mxGeometry width="50" height="50" relative="1" as="geometry">
                        <mxPoint x="108.5" y="765" as="sourcePoint"/>
                        <mxPoint x="320" y="750" as="targetPoint"/>
                        <Array as="points"/>
                    </mxGeometry>
                </mxCell>
                <mxCell id="RRF14F_0tP4bHI7PFCEU-30" value="'='" style="text;html=1;strokeColor=none;fillColor=none;align=center;verticalAlign=middle;whiteSpace=wrap;rounded=0;" parent="1" vertex="1">
                    <mxGeometry x="70" y="780" width="60" height="30" as="geometry"/>
                </mxCell>
                <mxCell id="RRF14F_0tP4bHI7PFCEU-35" value="" style="ellipse;whiteSpace=wrap;html=1;" parent="1" vertex="1">
                    <mxGeometry x="207" y="940" width="103" height="105" as="geometry"/>
                </mxCell>
                <mxCell id="RRF14F_0tP4bHI7PFCEU-36" value="GRT" style="ellipse;whiteSpace=wrap;html=1;aspect=fixed;" parent="1" vertex="1">
                    <mxGeometry x="211.12" y="945.12" width="94.76" height="94.76" as="geometry"/>
                </mxCell>
                <mxCell id="RRF14F_0tP4bHI7PFCEU-37" value="" style="ellipse;whiteSpace=wrap;html=1;" parent="1" vertex="1">
                    <mxGeometry x="207" y="1060" width="103" height="105" as="geometry"/>
                </mxCell>
                <mxCell id="RRF14F_0tP4bHI7PFCEU-38" value="LESS" style="ellipse;whiteSpace=wrap;html=1;aspect=fixed;" parent="1" vertex="1">
                    <mxGeometry x="211.12" y="1065.12" width="94.76" height="94.76" as="geometry"/>
                </mxCell>
                <mxCell id="RRF14F_0tP4bHI7PFCEU-39" value="" style="curved=1;endArrow=classic;html=1;rounded=0;exitX=0;exitY=1;exitDx=0;exitDy=0;entryX=1;entryY=0.5;entryDx=0;entryDy=0;" parent="1" source="rxYX9RSnvcoezxCYLgSo-1" target="RRF14F_0tP4bHI7PFCEU-35" edge="1">
                    <mxGeometry width="50" height="50" relative="1" as="geometry">
                        <mxPoint x="360" y="900" as="sourcePoint"/>
                        <mxPoint x="410" y="850" as="targetPoint"/>
                        <Array as="points">
                            <mxPoint x="620" y="660"/>
                            <mxPoint x="320" y="640"/>
                            <mxPoint x="360" y="1000"/>
                        </Array>
                    </mxGeometry>
                </mxCell>
                <mxCell id="RRF14F_0tP4bHI7PFCEU-40" value="" style="curved=1;endArrow=classic;html=1;rounded=0;exitX=0;exitY=1;exitDx=0;exitDy=0;entryX=1;entryY=0.5;entryDx=0;entryDy=0;" parent="1" target="RRF14F_0tP4bHI7PFCEU-37" edge="1">
                    <mxGeometry width="50" height="50" relative="1" as="geometry">
                        <mxPoint x="801.6446609406746" y="630.3553390593256" as="sourcePoint"/>
                        <mxPoint x="320.0000000000002" y="1002.4999999999998" as="targetPoint"/>
                        <Array as="points">
                            <mxPoint x="630" y="670"/>
                            <mxPoint x="350" y="660"/>
                            <mxPoint x="370" y="890"/>
                            <mxPoint x="350" y="1110"/>
                        </Array>
                    </mxGeometry>
                </mxCell>
                <mxCell id="RRF14F_0tP4bHI7PFCEU-41" value="'&amp;gt;'" style="text;html=1;strokeColor=none;fillColor=none;align=center;verticalAlign=middle;whiteSpace=wrap;rounded=0;" parent="1" vertex="1">
                    <mxGeometry x="340" y="650" width="60" height="30" as="geometry"/>
                </mxCell>
                <mxCell id="RRF14F_0tP4bHI7PFCEU-43" value="'&amp;lt;'" style="text;html=1;strokeColor=none;fillColor=none;align=center;verticalAlign=middle;whiteSpace=wrap;rounded=0;" parent="1" vertex="1">
                    <mxGeometry x="378.5" y="680" width="60" height="30" as="geometry"/>
                </mxCell>
                <mxCell id="RRF14F_0tP4bHI7PFCEU-44" value="" style="ellipse;whiteSpace=wrap;html=1;" parent="1" vertex="1">
                    <mxGeometry x="57" y="940" width="103" height="105" as="geometry"/>
                </mxCell>
                <mxCell id="RRF14F_0tP4bHI7PFCEU-45" value="GRT_EQ" style="ellipse;whiteSpace=wrap;html=1;aspect=fixed;" parent="1" vertex="1">
                    <mxGeometry x="61.120000000000005" y="945.12" width="94.76" height="94.76" as="geometry"/>
                </mxCell>
                <mxCell id="RRF14F_0tP4bHI7PFCEU-48" value="" style="curved=1;endArrow=classic;html=1;rounded=0;exitX=0;exitY=0.5;exitDx=0;exitDy=0;entryX=1;entryY=0.5;entryDx=0;entryDy=0;" parent="1" source="RRF14F_0tP4bHI7PFCEU-35" target="RRF14F_0tP4bHI7PFCEU-44" edge="1">
                    <mxGeometry width="50" height="50" relative="1" as="geometry">
                        <mxPoint x="230" y="1080" as="sourcePoint"/>
                        <mxPoint x="280" y="1030" as="targetPoint"/>
                        <Array as="points">
                            <mxPoint x="190" y="993"/>
                        </Array>
                    </mxGeometry>
                </mxCell>
                <mxCell id="RRF14F_0tP4bHI7PFCEU-49" value="" style="ellipse;whiteSpace=wrap;html=1;" parent="1" vertex="1">
                    <mxGeometry x="57" y="1060" width="103" height="105" as="geometry"/>
                </mxCell>
                <mxCell id="RRF14F_0tP4bHI7PFCEU-50" value="LESS_EQ" style="ellipse;whiteSpace=wrap;html=1;aspect=fixed;" parent="1" vertex="1">
                    <mxGeometry x="61.120000000000005" y="1065.12" width="94.76" height="94.76" as="geometry"/>
                </mxCell>
                <mxCell id="RRF14F_0tP4bHI7PFCEU-51" value="" style="curved=1;endArrow=classic;html=1;rounded=0;exitX=0;exitY=0.5;exitDx=0;exitDy=0;entryX=1;entryY=0.5;entryDx=0;entryDy=0;" parent="1" target="RRF14F_0tP4bHI7PFCEU-49" edge="1">
                    <mxGeometry width="50" height="50" relative="1" as="geometry">
                        <mxPoint x="207.00000000000023" y="1112.5" as="sourcePoint"/>
                        <mxPoint x="280" y="1150" as="targetPoint"/>
                        <Array as="points">
                            <mxPoint x="190" y="1113"/>
                        </Array>
                    </mxGeometry>
                </mxCell>
                <mxCell id="RRF14F_0tP4bHI7PFCEU-52" value="'='" style="text;html=1;strokeColor=none;fillColor=none;align=center;verticalAlign=middle;whiteSpace=wrap;rounded=0;" parent="1" vertex="1">
                    <mxGeometry x="155.88" y="970" width="60" height="30" as="geometry"/>
                </mxCell>
                <mxCell id="RRF14F_0tP4bHI7PFCEU-53" value="'='" style="text;html=1;strokeColor=none;fillColor=none;align=center;verticalAlign=middle;whiteSpace=wrap;rounded=0;" parent="1" vertex="1">
                    <mxGeometry x="155.88" y="1090" width="60" height="30" as="geometry"/>
                </mxCell>
                <mxCell id="RRF14F_0tP4bHI7PFCEU-55" value="" style="ellipse;whiteSpace=wrap;html=1;" parent="1" vertex="1">
                    <mxGeometry x="433" y="720.12" width="103" height="105" as="geometry"/>
                </mxCell>
                <mxCell id="RRF14F_0tP4bHI7PFCEU-56" value="OPEN_RND" style="ellipse;whiteSpace=wrap;html=1;aspect=fixed;" parent="1" vertex="1">
                    <mxGeometry x="437.12" y="725.24" width="94.76" height="94.76" as="geometry"/>
                </mxCell>
                <mxCell id="RRF14F_0tP4bHI7PFCEU-57" value="" style="ellipse;whiteSpace=wrap;html=1;" parent="1" vertex="1">
                    <mxGeometry x="610" y="720.12" width="103" height="105" as="geometry"/>
                </mxCell>
                <mxCell id="RRF14F_0tP4bHI7PFCEU-58" value="CLS_RND" style="ellipse;whiteSpace=wrap;html=1;aspect=fixed;" parent="1" vertex="1">
                    <mxGeometry x="614.12" y="725.24" width="94.76" height="94.76" as="geometry"/>
                </mxCell>
                <mxCell id="RRF14F_0tP4bHI7PFCEU-60" value="" style="ellipse;whiteSpace=wrap;html=1;" parent="1" vertex="1">
                    <mxGeometry x="514.12" y="1015" width="103" height="105" as="geometry"/>
                </mxCell>
                <mxCell id="RRF14F_0tP4bHI7PFCEU-61" value="SEMICOL" style="ellipse;whiteSpace=wrap;html=1;aspect=fixed;" parent="1" vertex="1">
                    <mxGeometry x="518.24" y="1020.12" width="94.76" height="94.76" as="geometry"/>
                </mxCell>
                <mxCell id="RRF14F_0tP4bHI7PFCEU-62" value="" style="ellipse;whiteSpace=wrap;html=1;" parent="1" vertex="1">
                    <mxGeometry x="388.5" y="895" width="103" height="105" as="geometry"/>
                </mxCell>
                <mxCell id="RRF14F_0tP4bHI7PFCEU-63" value="OPEN_CURL" style="ellipse;whiteSpace=wrap;html=1;aspect=fixed;" parent="1" vertex="1">
                    <mxGeometry x="392.62" y="900.12" width="94.76" height="94.76" as="geometry"/>
                </mxCell>
                <mxCell id="RRF14F_0tP4bHI7PFCEU-64" value="" style="ellipse;whiteSpace=wrap;html=1;" parent="1" vertex="1">
                    <mxGeometry x="635.88" y="895" width="103" height="105" as="geometry"/>
                </mxCell>
                <mxCell id="RRF14F_0tP4bHI7PFCEU-65" value="CLS_CURL" style="ellipse;whiteSpace=wrap;html=1;aspect=fixed;" parent="1" vertex="1">
                    <mxGeometry x="640" y="900.12" width="94.76" height="94.76" as="geometry"/>
                </mxCell>
                <mxCell id="RRF14F_0tP4bHI7PFCEU-66" value="" style="curved=1;endArrow=classic;html=1;rounded=0;exitX=0.333;exitY=0.972;exitDx=0;exitDy=0;exitPerimeter=0;entryX=0.508;entryY=0.002;entryDx=0;entryDy=0;entryPerimeter=0;" parent="1" source="rxYX9RSnvcoezxCYLgSo-1" target="RRF14F_0tP4bHI7PFCEU-55" edge="1">
                    <mxGeometry width="50" height="50" relative="1" as="geometry">
                        <mxPoint x="660" y="820" as="sourcePoint"/>
                        <mxPoint x="490" y="720" as="targetPoint"/>
                        <Array as="points">
                            <mxPoint x="720" y="680"/>
                            <mxPoint x="480" y="670"/>
                        </Array>
                    </mxGeometry>
                </mxCell>
                <mxCell id="RRF14F_0tP4bHI7PFCEU-67" value="" style="curved=1;endArrow=classic;html=1;rounded=0;exitX=0.416;exitY=0.986;exitDx=0;exitDy=0;exitPerimeter=0;entryX=0.437;entryY=0.003;entryDx=0;entryDy=0;entryPerimeter=0;" parent="1" source="rxYX9RSnvcoezxCYLgSo-1" target="RRF14F_0tP4bHI7PFCEU-57" edge="1">
                    <mxGeometry width="50" height="50" relative="1" as="geometry">
                        <mxPoint x="540" y="780" as="sourcePoint"/>
                        <mxPoint x="590" y="730" as="targetPoint"/>
                        <Array as="points">
                            <mxPoint x="760" y="690"/>
                            <mxPoint x="650" y="700"/>
                        </Array>
                    </mxGeometry>
                </mxCell>
                <mxCell id="RRF14F_0tP4bHI7PFCEU-68" value="'('" style="text;html=1;strokeColor=none;fillColor=none;align=center;verticalAlign=middle;whiteSpace=wrap;rounded=0;" parent="1" vertex="1">
                    <mxGeometry x="476" y="680" width="60" height="30" as="geometry"/>
                </mxCell>
                <mxCell id="RRF14F_0tP4bHI7PFCEU-69" value="')'" style="text;html=1;strokeColor=none;fillColor=none;align=center;verticalAlign=middle;whiteSpace=wrap;rounded=0;" parent="1" vertex="1">
                    <mxGeometry x="657.38" y="695.24" width="60" height="30" as="geometry"/>
                </mxCell>
                <mxCell id="RRF14F_0tP4bHI7PFCEU-70" value="" style="curved=1;endArrow=classic;html=1;rounded=0;exitX=0.5;exitY=1;exitDx=0;exitDy=0;entryX=0.5;entryY=0;entryDx=0;entryDy=0;" parent="1" source="rxYX9RSnvcoezxCYLgSo-1" target="RRF14F_0tP4bHI7PFCEU-62" edge="1">
                    <mxGeometry width="50" height="50" relative="1" as="geometry">
                        <mxPoint x="450" y="900" as="sourcePoint"/>
                        <mxPoint x="500" y="850" as="targetPoint"/>
                        <Array as="points">
                            <mxPoint x="760" y="850"/>
                            <mxPoint x="430" y="840"/>
                        </Array>
                    </mxGeometry>
                </mxCell>
                <mxCell id="RRF14F_0tP4bHI7PFCEU-71" value="" style="curved=1;endArrow=classic;html=1;rounded=0;entryX=0.5;entryY=0;entryDx=0;entryDy=0;exitX=0.616;exitY=0.979;exitDx=0;exitDy=0;exitPerimeter=0;" parent="1" source="rxYX9RSnvcoezxCYLgSo-1" target="RRF14F_0tP4bHI7PFCEU-60" edge="1">
                    <mxGeometry width="50" height="50" relative="1" as="geometry">
                        <mxPoint x="450" y="900" as="sourcePoint"/>
                        <mxPoint x="500" y="850" as="targetPoint"/>
                        <Array as="points">
                            <mxPoint x="780" y="810"/>
                            <mxPoint x="500" y="920"/>
                        </Array>
                    </mxGeometry>
                </mxCell>
                <mxCell id="RRF14F_0tP4bHI7PFCEU-72" value="" style="curved=1;endArrow=classic;html=1;rounded=0;exitX=0.698;exitY=0.958;exitDx=0;exitDy=0;exitPerimeter=0;entryX=0.5;entryY=0;entryDx=0;entryDy=0;" parent="1" source="rxYX9RSnvcoezxCYLgSo-1" target="RRF14F_0tP4bHI7PFCEU-64" edge="1">
                    <mxGeometry width="50" height="50" relative="1" as="geometry">
                        <mxPoint x="450" y="900" as="sourcePoint"/>
                        <mxPoint x="500" y="850" as="targetPoint"/>
                        <Array as="points">
                            <mxPoint x="790" y="790"/>
                            <mxPoint x="690" y="850"/>
                        </Array>
                    </mxGeometry>
                </mxCell>
                <mxCell id="RRF14F_0tP4bHI7PFCEU-74" value="'{'" style="text;html=1;strokeColor=none;fillColor=none;align=center;verticalAlign=middle;whiteSpace=wrap;rounded=0;" parent="1" vertex="1">
                    <mxGeometry x="487.38" y="850" width="60" height="30" as="geometry"/>
                </mxCell>
                <mxCell id="RRF14F_0tP4bHI7PFCEU-76" value="'}'" style="text;html=1;strokeColor=none;fillColor=none;align=center;verticalAlign=middle;whiteSpace=wrap;rounded=0;" parent="1" vertex="1">
                    <mxGeometry x="690" y="850" width="60" height="30" as="geometry"/>
                </mxCell>
                <mxCell id="RRF14F_0tP4bHI7PFCEU-77" value="';'" style="text;html=1;strokeColor=none;fillColor=none;align=center;verticalAlign=middle;whiteSpace=wrap;rounded=0;" parent="1" vertex="1">
                    <mxGeometry x="531.5" y="932.5" width="60" height="30" as="geometry"/>
                </mxCell>
                <mxCell id="RRF14F_0tP4bHI7PFCEU-81" value="" style="curved=1;endArrow=classic;html=1;rounded=0;exitX=0.947;exitY=0.263;exitDx=0;exitDy=0;entryX=0.5;entryY=1;entryDx=0;entryDy=0;exitPerimeter=0;" parent="1" source="rxYX9RSnvcoezxCYLgSo-1" target="RRF14F_0tP4bHI7PFCEU-83" edge="1">
                    <mxGeometry width="50" height="50" relative="1" as="geometry">
                        <mxPoint x="970" y="440" as="sourcePoint"/>
                        <mxPoint x="1071.4999999999995" y="307.4999999999998" as="targetPoint"/>
                        <Array as="points">
                            <mxPoint x="980" y="540"/>
                            <mxPoint x="1080" y="410"/>
                        </Array>
                    </mxGeometry>
                </mxCell>
                <mxCell id="RRF14F_0tP4bHI7PFCEU-83" value="" style="ellipse;whiteSpace=wrap;html=1;" parent="1" vertex="1">
                    <mxGeometry x="1020" y="200" width="103" height="105" as="geometry"/>
                </mxCell>
                <mxCell id="RRF14F_0tP4bHI7PFCEU-84" value="" style="curved=1;endArrow=classic;html=1;rounded=0;exitX=1;exitY=0.5;exitDx=0;exitDy=0;entryX=1;entryY=0;entryDx=0;entryDy=0;" parent="1" source="RRF14F_0tP4bHI7PFCEU-83" target="RRF14F_0tP4bHI7PFCEU-83" edge="1">
                    <mxGeometry width="50" height="50" relative="1" as="geometry">
                        <mxPoint x="1123" y="260" as="sourcePoint"/>
                        <mxPoint x="1173" y="210" as="targetPoint"/>
                        <Array as="points">
                            <mxPoint x="1160" y="240"/>
                            <mxPoint x="1140" y="200"/>
                        </Array>
                    </mxGeometry>
                </mxCell>
                <mxCell id="RRF14F_0tP4bHI7PFCEU-85" value="A-Za-z0-9'_'" style="text;html=1;strokeColor=none;fillColor=none;align=center;verticalAlign=middle;whiteSpace=wrap;rounded=0;" parent="1" vertex="1">
                    <mxGeometry x="1118.88" y="180" width="80" height="30" as="geometry"/>
                </mxCell>
                <mxCell id="RRF14F_0tP4bHI7PFCEU-86" value="IDENTIF" style="ellipse;whiteSpace=wrap;html=1;aspect=fixed;" parent="1" vertex="1">
                    <mxGeometry x="1024.12" y="205.12" width="94.76" height="94.76" as="geometry"/>
                </mxCell>
                <mxCell id="RRF14F_0tP4bHI7PFCEU-88" value="ID_OR_END" style="ellipse;whiteSpace=wrap;html=1;" parent="1" vertex="1">
                    <mxGeometry x="917" y="355" width="103" height="105" as="geometry"/>
                </mxCell>
                <mxCell id="RRF14F_0tP4bHI7PFCEU-89" value="" style="curved=1;endArrow=classic;html=1;rounded=0;exitX=1;exitY=0;exitDx=0;exitDy=0;entryX=0.5;entryY=1;entryDx=0;entryDy=0;" parent="1" source="rxYX9RSnvcoezxCYLgSo-1" target="RRF14F_0tP4bHI7PFCEU-88" edge="1">
                    <mxGeometry width="50" height="50" relative="1" as="geometry">
                        <mxPoint x="740" y="450" as="sourcePoint"/>
                        <mxPoint x="790" y="400" as="targetPoint"/>
                        <Array as="points">
                            <mxPoint x="920" y="530"/>
                            <mxPoint x="969" y="500"/>
                        </Array>
                    </mxGeometry>
                </mxCell>
                <mxCell id="RRF14F_0tP4bHI7PFCEU-90" value="END_SIGN" style="ellipse;whiteSpace=wrap;html=1;" parent="1" vertex="1">
                    <mxGeometry x="877" y="200" width="103" height="105" as="geometry"/>
                </mxCell>
                <mxCell id="RRF14F_0tP4bHI7PFCEU-92" value="" style="curved=1;endArrow=classic;html=1;rounded=0;exitX=0;exitY=0;exitDx=0;exitDy=0;entryX=0;entryY=1;entryDx=0;entryDy=0;" parent="1" source="RRF14F_0tP4bHI7PFCEU-88" target="RRF14F_0tP4bHI7PFCEU-90" edge="1">
                    <mxGeometry width="50" height="50" relative="1" as="geometry">
                        <mxPoint x="860" y="350" as="sourcePoint"/>
                        <mxPoint x="910" y="300" as="targetPoint"/>
                        <Array as="points">
                            <mxPoint x="870" y="320"/>
                        </Array>
                    </mxGeometry>
                </mxCell>
                <mxCell id="RRF14F_0tP4bHI7PFCEU-93" value="'?'" style="text;html=1;strokeColor=none;fillColor=none;align=center;verticalAlign=middle;whiteSpace=wrap;rounded=0;" parent="1" vertex="1">
                    <mxGeometry x="890" y="500" width="60" height="30" as="geometry"/>
                </mxCell>
                <mxCell id="RRF14F_0tP4bHI7PFCEU-94" value="" style="curved=1;endArrow=classic;html=1;rounded=0;entryX=0;entryY=1;entryDx=0;entryDy=0;exitX=0.5;exitY=0;exitDx=0;exitDy=0;" parent="1" source="RRF14F_0tP4bHI7PFCEU-88" target="RRF14F_0tP4bHI7PFCEU-83" edge="1">
                    <mxGeometry width="50" height="50" relative="1" as="geometry">
                        <mxPoint x="840" y="420" as="sourcePoint"/>
                        <mxPoint x="890" y="370" as="targetPoint"/>
                        <Array as="points">
                            <mxPoint x="990" y="320"/>
                        </Array>
                    </mxGeometry>
                </mxCell>
                <mxCell id="RRF14F_0tP4bHI7PFCEU-95" value="A-Za-z0-9'_'" style="text;html=1;strokeColor=none;fillColor=none;align=center;verticalAlign=middle;whiteSpace=wrap;rounded=0;" parent="1" vertex="1">
                    <mxGeometry x="990" y="320.12" width="70" height="30" as="geometry"/>
                </mxCell>
                <mxCell id="RRF14F_0tP4bHI7PFCEU-96" value="'&amp;gt;'" style="text;html=1;strokeColor=none;fillColor=none;align=center;verticalAlign=middle;whiteSpace=wrap;rounded=0;" parent="1" vertex="1">
                    <mxGeometry x="877" y="320.12" width="60" height="30" as="geometry"/>
                </mxCell>
                <mxCell id="RRF14F_0tP4bHI7PFCEU-97" value="END_SIGN" style="ellipse;whiteSpace=wrap;html=1;" parent="1" vertex="1">
                    <mxGeometry x="877" y="45" width="103" height="105" as="geometry"/>
                </mxCell>
                <mxCell id="RRF14F_0tP4bHI7PFCEU-98" value="" style="endArrow=classic;html=1;rounded=0;exitX=0.5;exitY=0;exitDx=0;exitDy=0;entryX=0.5;entryY=1;entryDx=0;entryDy=0;" parent="1" source="RRF14F_0tP4bHI7PFCEU-90" target="RRF14F_0tP4bHI7PFCEU-97" edge="1">
                    <mxGeometry width="50" height="50" relative="1" as="geometry">
                        <mxPoint x="990" y="250" as="sourcePoint"/>
                        <mxPoint x="1040" y="200" as="targetPoint"/>
                    </mxGeometry>
                </mxCell>
                <mxCell id="RRF14F_0tP4bHI7PFCEU-99" value="EOF" style="text;html=1;align=center;verticalAlign=middle;resizable=0;points=[];autosize=1;strokeColor=none;fillColor=none;" parent="1" vertex="1">
                    <mxGeometry x="917" y="165" width="50" height="30" as="geometry"/>
                </mxCell>
                <mxCell id="RRF14F_0tP4bHI7PFCEU-100" value="END_PRG" style="ellipse;whiteSpace=wrap;html=1;aspect=fixed;" parent="1" vertex="1">
                    <mxGeometry x="881.1199999999999" y="50.120000000000005" width="94.76" height="94.76" as="geometry"/>
                </mxCell>
                <mxCell id="RRF14F_0tP4bHI7PFCEU-101" value="&lt;div&gt;A-Za-z&lt;/div&gt;&lt;div&gt;'_'$'&lt;/div&gt;" style="text;html=1;strokeColor=none;fillColor=none;align=center;verticalAlign=middle;whiteSpace=wrap;rounded=0;" parent="1" vertex="1">
                    <mxGeometry x="1041.88" y="435" width="81.12" height="30" as="geometry"/>
                </mxCell>
                <mxCell id="RRF14F_0tP4bHI7PFCEU-102" value="" style="curved=1;endArrow=classic;html=1;rounded=0;exitX=0.996;exitY=0.42;exitDx=0;exitDy=0;exitPerimeter=0;entryX=0;entryY=1;entryDx=0;entryDy=0;" parent="1" source="rxYX9RSnvcoezxCYLgSo-1" target="RRF14F_0tP4bHI7PFCEU-103" edge="1">
                    <mxGeometry width="50" height="50" relative="1" as="geometry">
                        <mxPoint x="960" y="580" as="sourcePoint"/>
                        <mxPoint x="1130" y="520" as="targetPoint"/>
                        <Array as="points">
                            <mxPoint x="980" y="570"/>
                            <mxPoint x="1100" y="540"/>
                        </Array>
                    </mxGeometry>
                </mxCell>
                <mxCell id="RRF14F_0tP4bHI7PFCEU-103" value="" style="ellipse;whiteSpace=wrap;html=1;" parent="1" vertex="1">
                    <mxGeometry x="1160" y="405" width="103" height="105" as="geometry"/>
                </mxCell>
                <mxCell id="RRF14F_0tP4bHI7PFCEU-104" value="" style="curved=1;endArrow=classic;html=1;rounded=0;exitX=1;exitY=0.5;exitDx=0;exitDy=0;entryX=1;entryY=0;entryDx=0;entryDy=0;" parent="1" source="RRF14F_0tP4bHI7PFCEU-103" target="RRF14F_0tP4bHI7PFCEU-103" edge="1">
                    <mxGeometry width="50" height="50" relative="1" as="geometry">
                        <mxPoint x="1263" y="465" as="sourcePoint"/>
                        <mxPoint x="1313" y="415" as="targetPoint"/>
                        <Array as="points">
                            <mxPoint x="1300" y="445"/>
                            <mxPoint x="1280" y="405"/>
                        </Array>
                    </mxGeometry>
                </mxCell>
                <mxCell id="RRF14F_0tP4bHI7PFCEU-105" value="0-9" style="text;html=1;strokeColor=none;fillColor=none;align=center;verticalAlign=middle;whiteSpace=wrap;rounded=0;" parent="1" vertex="1">
                    <mxGeometry x="1258.88" y="400" width="80" height="30" as="geometry"/>
                </mxCell>
                <mxCell id="RRF14F_0tP4bHI7PFCEU-106" value="INTEG" style="ellipse;whiteSpace=wrap;html=1;aspect=fixed;" parent="1" vertex="1">
                    <mxGeometry x="1164.12" y="410.12" width="94.76" height="94.76" as="geometry"/>
                </mxCell>
                <mxCell id="RRF14F_0tP4bHI7PFCEU-108" value="0-9" style="text;html=1;strokeColor=none;fillColor=none;align=center;verticalAlign=middle;whiteSpace=wrap;rounded=0;" parent="1" vertex="1">
                    <mxGeometry x="975.8800000000001" y="535" width="80" height="30" as="geometry"/>
                </mxCell>
                <mxCell id="RRF14F_0tP4bHI7PFCEU-110" value="FLOAT_DOT" style="ellipse;whiteSpace=wrap;html=1;" parent="1" vertex="1">
                    <mxGeometry x="1180" y="235" width="103" height="105" as="geometry"/>
                </mxCell>
                <mxCell id="RRF14F_0tP4bHI7PFCEU-118" value="" style="curved=1;endArrow=classic;html=1;rounded=0;exitX=0.5;exitY=0;exitDx=0;exitDy=0;entryX=0.297;entryY=0.958;entryDx=0;entryDy=0;entryPerimeter=0;" parent="1" source="RRF14F_0tP4bHI7PFCEU-103" target="RRF14F_0tP4bHI7PFCEU-110" edge="1">
                    <mxGeometry width="50" height="50" relative="1" as="geometry">
                        <mxPoint x="1200" y="380" as="sourcePoint"/>
                        <mxPoint x="1250" y="330" as="targetPoint"/>
                        <Array as="points">
                            <mxPoint x="1200" y="390"/>
                            <mxPoint x="1200" y="360"/>
                        </Array>
                    </mxGeometry>
                </mxCell>
                <mxCell id="RRF14F_0tP4bHI7PFCEU-119" value="'.'" style="text;html=1;strokeColor=none;fillColor=none;align=center;verticalAlign=middle;whiteSpace=wrap;rounded=0;" parent="1" vertex="1">
                    <mxGeometry x="1180" y="355" width="60" height="30" as="geometry"/>
                </mxCell>
                <mxCell id="RRF14F_0tP4bHI7PFCEU-120" value="" style="ellipse;whiteSpace=wrap;html=1;" parent="1" vertex="1">
                    <mxGeometry x="1270" y="75" width="103" height="105" as="geometry"/>
                </mxCell>
                <mxCell id="RRF14F_0tP4bHI7PFCEU-121" value="&lt;div&gt;FLOAT_DOT&lt;/div&gt;&lt;div&gt;_NUM&lt;/div&gt;" style="ellipse;whiteSpace=wrap;html=1;aspect=fixed;" parent="1" vertex="1">
                    <mxGeometry x="1274.12" y="80.12" width="94.76" height="94.76" as="geometry"/>
                </mxCell>
                <mxCell id="RRF14F_0tP4bHI7PFCEU-122" value="" style="curved=1;endArrow=classic;html=1;rounded=0;exitX=0.5;exitY=0;exitDx=0;exitDy=0;entryX=0;entryY=0.5;entryDx=0;entryDy=0;" parent="1" source="RRF14F_0tP4bHI7PFCEU-110" target="RRF14F_0tP4bHI7PFCEU-120" edge="1">
                    <mxGeometry width="50" height="50" relative="1" as="geometry">
                        <mxPoint x="1240" y="210" as="sourcePoint"/>
                        <mxPoint x="1290" y="160" as="targetPoint"/>
                        <Array as="points">
                            <mxPoint x="1210" y="140"/>
                        </Array>
                    </mxGeometry>
                </mxCell>
                <mxCell id="RRF14F_0tP4bHI7PFCEU-123" value="0-9" style="text;html=1;strokeColor=none;fillColor=none;align=center;verticalAlign=middle;whiteSpace=wrap;rounded=0;" parent="1" vertex="1">
                    <mxGeometry x="1210" y="165" width="60" height="30" as="geometry"/>
                </mxCell>
                <mxCell id="RRF14F_0tP4bHI7PFCEU-124" value="" style="curved=1;endArrow=classic;html=1;rounded=0;exitX=1;exitY=0.5;exitDx=0;exitDy=0;entryX=1;entryY=0;entryDx=0;entryDy=0;" parent="1" source="RRF14F_0tP4bHI7PFCEU-120" target="RRF14F_0tP4bHI7PFCEU-120" edge="1">
                    <mxGeometry width="50" height="50" relative="1" as="geometry">
                        <mxPoint x="1375.1700000000003" y="126.25" as="sourcePoint"/>
                        <mxPoint x="1359.997288299347" y="89.036680278718" as="targetPoint"/>
                        <Array as="points">
                            <mxPoint x="1412.17" y="113.75"/>
                            <mxPoint x="1392.17" y="73.75"/>
                        </Array>
                    </mxGeometry>
                </mxCell>
                <mxCell id="RRF14F_0tP4bHI7PFCEU-125" value="0-9" style="text;html=1;strokeColor=none;fillColor=none;align=center;verticalAlign=middle;whiteSpace=wrap;rounded=0;" parent="1" vertex="1">
                    <mxGeometry x="1371.0500000000002" y="68.75" width="80" height="30" as="geometry"/>
                </mxCell>
                <mxCell id="RRF14F_0tP4bHI7PFCEU-127" value="FLOAT_E" style="ellipse;whiteSpace=wrap;html=1;" parent="1" vertex="1">
                    <mxGeometry x="1348.05" y="230" width="103" height="105" as="geometry"/>
                </mxCell>
                <mxCell id="RRF14F_0tP4bHI7PFCEU-128" value="" style="curved=1;endArrow=classic;html=1;rounded=0;exitX=1;exitY=1;exitDx=0;exitDy=0;entryX=0.5;entryY=0;entryDx=0;entryDy=0;" parent="1" source="RRF14F_0tP4bHI7PFCEU-120" target="RRF14F_0tP4bHI7PFCEU-127" edge="1">
                    <mxGeometry width="50" height="50" relative="1" as="geometry">
                        <mxPoint x="1400" y="240" as="sourcePoint"/>
                        <mxPoint x="1450" y="190" as="targetPoint"/>
                        <Array as="points">
                            <mxPoint x="1380" y="170"/>
                            <mxPoint x="1400" y="200"/>
                        </Array>
                    </mxGeometry>
                </mxCell>
                <mxCell id="RRF14F_0tP4bHI7PFCEU-129" value="'E'e'" style="text;html=1;strokeColor=none;fillColor=none;align=center;verticalAlign=middle;whiteSpace=wrap;rounded=0;" parent="1" vertex="1">
                    <mxGeometry x="1371.05" y="170" width="60" height="30" as="geometry"/>
                </mxCell>
                <mxCell id="RRF14F_0tP4bHI7PFCEU-130" value="" style="curved=1;endArrow=classic;html=1;rounded=0;exitX=0.701;exitY=0.044;exitDx=0;exitDy=0;exitPerimeter=0;entryX=0;entryY=1;entryDx=0;entryDy=0;" parent="1" source="RRF14F_0tP4bHI7PFCEU-103" target="RRF14F_0tP4bHI7PFCEU-127" edge="1">
                    <mxGeometry width="50" height="50" relative="1" as="geometry">
                        <mxPoint x="1280" y="380" as="sourcePoint"/>
                        <mxPoint x="1330" y="330" as="targetPoint"/>
                        <Array as="points">
                            <mxPoint x="1280" y="390"/>
                            <mxPoint x="1310" y="340"/>
                        </Array>
                    </mxGeometry>
                </mxCell>
                <mxCell id="RRF14F_0tP4bHI7PFCEU-131" value="'E'e'" style="text;html=1;strokeColor=none;fillColor=none;align=center;verticalAlign=middle;whiteSpace=wrap;rounded=0;" parent="1" vertex="1">
                    <mxGeometry x="1258.8799999999999" y="340" width="60" height="30" as="geometry"/>
                </mxCell>
                <mxCell id="RRF14F_0tP4bHI7PFCEU-132" value="FLOAT_E_SIGN" style="ellipse;whiteSpace=wrap;html=1;" parent="1" vertex="1">
                    <mxGeometry x="1510" y="282.62" width="103" height="105" as="geometry"/>
                </mxCell>
                <mxCell id="RRF14F_0tP4bHI7PFCEU-133" value="" style="curved=1;endArrow=classic;html=1;rounded=0;exitX=1;exitY=1;exitDx=0;exitDy=0;entryX=0;entryY=0.5;entryDx=0;entryDy=0;" parent="1" source="RRF14F_0tP4bHI7PFCEU-127" target="RRF14F_0tP4bHI7PFCEU-132" edge="1">
                    <mxGeometry width="50" height="50" relative="1" as="geometry">
                        <mxPoint x="1450" y="360" as="sourcePoint"/>
                        <mxPoint x="1500" y="310" as="targetPoint"/>
                        <Array as="points">
                            <mxPoint x="1450" y="330"/>
                            <mxPoint x="1480" y="340"/>
                        </Array>
                    </mxGeometry>
                </mxCell>
                <mxCell id="RRF14F_0tP4bHI7PFCEU-134" value="'+'-'" style="text;html=1;strokeColor=none;fillColor=none;align=center;verticalAlign=middle;whiteSpace=wrap;rounded=0;" parent="1" vertex="1">
                    <mxGeometry x="1440" y="305" width="60" height="30" as="geometry"/>
                </mxCell>
                <mxCell id="RRF14F_0tP4bHI7PFCEU-135" value="" style="ellipse;whiteSpace=wrap;html=1;" parent="1" vertex="1">
                    <mxGeometry x="1360" y="390" width="103" height="105" as="geometry"/>
                </mxCell>
                <mxCell id="RRF14F_0tP4bHI7PFCEU-136" value="" style="curved=1;endArrow=classic;html=1;rounded=0;exitX=1;exitY=0.5;exitDx=0;exitDy=0;entryX=1;entryY=0;entryDx=0;entryDy=0;" parent="1" source="RRF14F_0tP4bHI7PFCEU-135" target="RRF14F_0tP4bHI7PFCEU-135" edge="1">
                    <mxGeometry width="50" height="50" relative="1" as="geometry">
                        <mxPoint x="1463" y="450" as="sourcePoint"/>
                        <mxPoint x="1513" y="400" as="targetPoint"/>
                        <Array as="points">
                            <mxPoint x="1500" y="430"/>
                            <mxPoint x="1480" y="390"/>
                        </Array>
                    </mxGeometry>
                </mxCell>
                <mxCell id="RRF14F_0tP4bHI7PFCEU-137" value="0-9" style="text;html=1;strokeColor=none;fillColor=none;align=center;verticalAlign=middle;whiteSpace=wrap;rounded=0;" parent="1" vertex="1">
                    <mxGeometry x="1458.88" y="385" width="80" height="30" as="geometry"/>
                </mxCell>
                <mxCell id="RRF14F_0tP4bHI7PFCEU-138" value="FLOAT_E_NUM" style="ellipse;whiteSpace=wrap;html=1;aspect=fixed;" parent="1" vertex="1">
                    <mxGeometry x="1364.12" y="395.12" width="94.76" height="94.76" as="geometry"/>
                </mxCell>
                <mxCell id="RRF14F_0tP4bHI7PFCEU-139" value="" style="curved=1;endArrow=classic;html=1;rounded=0;exitX=0.5;exitY=1;exitDx=0;exitDy=0;entryX=0.5;entryY=0;entryDx=0;entryDy=0;" parent="1" source="RRF14F_0tP4bHI7PFCEU-127" target="RRF14F_0tP4bHI7PFCEU-135" edge="1">
                    <mxGeometry width="50" height="50" relative="1" as="geometry">
                        <mxPoint x="1400" y="440" as="sourcePoint"/>
                        <mxPoint x="1450" y="390" as="targetPoint"/>
                        <Array as="points">
                            <mxPoint x="1400" y="350"/>
                            <mxPoint x="1412" y="370"/>
                        </Array>
                    </mxGeometry>
                </mxCell>
                <mxCell id="RRF14F_0tP4bHI7PFCEU-140" value="0-9" style="text;html=1;strokeColor=none;fillColor=none;align=center;verticalAlign=middle;whiteSpace=wrap;rounded=0;" parent="1" vertex="1">
                    <mxGeometry x="1391.05" y="345" width="60" height="30" as="geometry"/>
                </mxCell>
                <mxCell id="RRF14F_0tP4bHI7PFCEU-141" value="" style="curved=1;endArrow=classic;html=1;rounded=0;exitX=0.5;exitY=1;exitDx=0;exitDy=0;entryX=1;entryY=1;entryDx=0;entryDy=0;" parent="1" source="RRF14F_0tP4bHI7PFCEU-132" target="RRF14F_0tP4bHI7PFCEU-135" edge="1">
                    <mxGeometry width="50" height="50" relative="1" as="geometry">
                        <mxPoint x="1420" y="390" as="sourcePoint"/>
                        <mxPoint x="1470" y="340" as="targetPoint"/>
                        <Array as="points">
                            <mxPoint x="1580" y="450"/>
                            <mxPoint x="1470" y="490"/>
                        </Array>
                    </mxGeometry>
                </mxCell>
                <mxCell id="RRF14F_0tP4bHI7PFCEU-151" style="edgeStyle=orthogonalEdgeStyle;rounded=0;orthogonalLoop=1;jettySize=auto;html=1;" parent="1" source="RRF14F_0tP4bHI7PFCEU-142" edge="1">
                    <mxGeometry relative="1" as="geometry">
                        <mxPoint x="948.88" y="852.62" as="targetPoint"/>
                    </mxGeometry>
                </mxCell>
                <mxCell id="RRF14F_0tP4bHI7PFCEU-142" value="STRING_LIT" style="ellipse;whiteSpace=wrap;html=1;" parent="1" vertex="1">
                    <mxGeometry x="1068.88" y="800.12" width="103" height="105" as="geometry"/>
                </mxCell>
                <mxCell id="RRF14F_0tP4bHI7PFCEU-143" value="" style="curved=1;endArrow=classic;html=1;rounded=0;exitX=1;exitY=1;exitDx=0;exitDy=0;entryX=0;entryY=0;entryDx=0;entryDy=0;" parent="1" source="rxYX9RSnvcoezxCYLgSo-1" target="RRF14F_0tP4bHI7PFCEU-142" edge="1">
                    <mxGeometry width="50" height="50" relative="1" as="geometry">
                        <mxPoint x="1160" y="810" as="sourcePoint"/>
                        <mxPoint x="1210" y="760" as="targetPoint"/>
                        <Array as="points">
                            <mxPoint x="1020" y="710"/>
                        </Array>
                    </mxGeometry>
                </mxCell>
                <mxCell id="RRF14F_0tP4bHI7PFCEU-144" value="&quot;" style="text;html=1;strokeColor=none;fillColor=none;align=center;verticalAlign=middle;whiteSpace=wrap;rounded=0;" parent="1" vertex="1">
                    <mxGeometry x="920" y="675.12" width="60" height="30" as="geometry"/>
                </mxCell>
                <mxCell id="RRF14F_0tP4bHI7PFCEU-147" value="" style="curved=1;endArrow=classic;html=1;rounded=0;exitX=1;exitY=0.5;exitDx=0;exitDy=0;entryX=1;entryY=0;entryDx=0;entryDy=0;" parent="1" source="RRF14F_0tP4bHI7PFCEU-142" target="RRF14F_0tP4bHI7PFCEU-142" edge="1">
                    <mxGeometry width="50" height="50" relative="1" as="geometry">
                        <mxPoint x="1173.000000000001" y="857.62" as="sourcePoint"/>
                        <mxPoint x="1158.0310354368926" y="820.61453553146" as="targetPoint"/>
                        <Array as="points">
                            <mxPoint x="1208.88" y="840.12"/>
                            <mxPoint x="1190" y="805.12"/>
                        </Array>
                    </mxGeometry>
                </mxCell>
                <mxCell id="RRF14F_0tP4bHI7PFCEU-148" value="ANY -{'\', &quot;}" style="text;html=1;strokeColor=none;fillColor=none;align=center;verticalAlign=middle;whiteSpace=wrap;rounded=0;" parent="1" vertex="1">
                    <mxGeometry x="1163" y="785.12" width="80" height="30" as="geometry"/>
                </mxCell>
                <mxCell id="RRF14F_0tP4bHI7PFCEU-149" value="" style="ellipse;whiteSpace=wrap;html=1;" parent="1" vertex="1">
                    <mxGeometry x="845.8800000000001" y="800.12" width="103" height="105" as="geometry"/>
                </mxCell>
                <mxCell id="RRF14F_0tP4bHI7PFCEU-150" value="&lt;div&gt;STRING&lt;/div&gt;&lt;div&gt;_LIT_END&lt;/div&gt;" style="ellipse;whiteSpace=wrap;html=1;aspect=fixed;" parent="1" vertex="1">
                    <mxGeometry x="850" y="805.24" width="94.76" height="94.76" as="geometry"/>
                </mxCell>
                <mxCell id="RRF14F_0tP4bHI7PFCEU-152" value="&quot;" style="text;html=1;strokeColor=none;fillColor=none;align=center;verticalAlign=middle;whiteSpace=wrap;rounded=0;" parent="1" vertex="1">
                    <mxGeometry x="978.88" y="830.12" width="60" height="30" as="geometry"/>
                </mxCell>
                <mxCell id="RRF14F_0tP4bHI7PFCEU-162" style="edgeStyle=orthogonalEdgeStyle;rounded=0;orthogonalLoop=1;jettySize=auto;html=1;entryX=0;entryY=0.5;entryDx=0;entryDy=0;" parent="1" source="RRF14F_0tP4bHI7PFCEU-154" target="RRF14F_0tP4bHI7PFCEU-161" edge="1">
                    <mxGeometry relative="1" as="geometry"/>
                </mxCell>
                <mxCell id="RRF14F_0tP4bHI7PFCEU-154" value="ESC_CHAR" style="ellipse;whiteSpace=wrap;html=1;" parent="1" vertex="1">
                    <mxGeometry x="1244.76" y="675.12" width="103" height="105" as="geometry"/>
                </mxCell>
                <mxCell id="RRF14F_0tP4bHI7PFCEU-155" value="" style="curved=1;endArrow=classic;html=1;rounded=0;exitX=0.5;exitY=0;exitDx=0;exitDy=0;entryX=0;entryY=0.5;entryDx=0;entryDy=0;" parent="1" source="RRF14F_0tP4bHI7PFCEU-142" target="RRF14F_0tP4bHI7PFCEU-154" edge="1">
                    <mxGeometry width="50" height="50" relative="1" as="geometry">
                        <mxPoint x="1208.88" y="800.12" as="sourcePoint"/>
                        <mxPoint x="1258.88" y="750.12" as="targetPoint"/>
                        <Array as="points">
                            <mxPoint x="1118.88" y="770.12"/>
                            <mxPoint x="1178.88" y="720.12"/>
                        </Array>
                    </mxGeometry>
                </mxCell>
                <mxCell id="RRF14F_0tP4bHI7PFCEU-156" value="'\'" style="text;html=1;strokeColor=none;fillColor=none;align=center;verticalAlign=middle;whiteSpace=wrap;rounded=0;" parent="1" vertex="1">
                    <mxGeometry x="1147.7600000000002" y="730.12" width="60" height="30" as="geometry"/>
                </mxCell>
                <mxCell id="RRF14F_0tP4bHI7PFCEU-158" value="" style="curved=1;endArrow=classic;html=1;rounded=0;exitX=0;exitY=1;exitDx=0;exitDy=0;entryX=0.975;entryY=0.656;entryDx=0;entryDy=0;entryPerimeter=0;" parent="1" source="RRF14F_0tP4bHI7PFCEU-154" target="RRF14F_0tP4bHI7PFCEU-142" edge="1">
                    <mxGeometry width="50" height="50" relative="1" as="geometry">
                        <mxPoint x="1264.93" y="915.12" as="sourcePoint"/>
                        <mxPoint x="1314.93" y="865.12" as="targetPoint"/>
                        <Array as="points">
                            <mxPoint x="1238.88" y="780.12"/>
                            <mxPoint x="1238.88" y="870.12"/>
                        </Array>
                    </mxGeometry>
                </mxCell>
                <mxCell id="RRF14F_0tP4bHI7PFCEU-161" value="ESC_SEQ" style="ellipse;whiteSpace=wrap;html=1;" parent="1" vertex="1">
                    <mxGeometry x="1408.88" y="675.12" width="103" height="105" as="geometry"/>
                </mxCell>
                <mxCell id="RRF14F_0tP4bHI7PFCEU-163" value="{'n', 'r', 't', 'v', 'e', '\', '$', &quot;}" style="text;html=1;strokeColor=none;fillColor=none;align=center;verticalAlign=middle;whiteSpace=wrap;rounded=0;" parent="1" vertex="1">
                    <mxGeometry x="1351.88" y="685.48" width="48.95" height="29.88" as="geometry"/>
                </mxCell>
                <mxCell id="RRF14F_0tP4bHI7PFCEU-165" value="" style="curved=1;endArrow=classic;html=1;rounded=0;exitX=0.5;exitY=0;exitDx=0;exitDy=0;entryX=1;entryY=0;entryDx=0;entryDy=0;" parent="1" source="RRF14F_0tP4bHI7PFCEU-161" target="RRF14F_0tP4bHI7PFCEU-149" edge="1">
                    <mxGeometry width="50" height="50" relative="1" as="geometry">
                        <mxPoint x="1158.88" y="800.12" as="sourcePoint"/>
                        <mxPoint x="1208.88" y="750.12" as="targetPoint"/>
                        <Array as="points">
                            <mxPoint x="1458.88" y="610.12"/>
                            <mxPoint x="1158.88" y="610.12"/>
                            <mxPoint x="1038.88" y="780.12"/>
                        </Array>
                    </mxGeometry>
                </mxCell>
                <mxCell id="RRF14F_0tP4bHI7PFCEU-167" value="&quot;" style="text;html=1;strokeColor=none;fillColor=none;align=center;verticalAlign=middle;whiteSpace=wrap;rounded=0;" parent="1" vertex="1">
                    <mxGeometry x="1207.7600000000002" y="590.12" width="60" height="30" as="geometry"/>
                </mxCell>
                <mxCell id="RRF14F_0tP4bHI7PFCEU-173" style="edgeStyle=orthogonalEdgeStyle;rounded=0;orthogonalLoop=1;jettySize=auto;html=1;" parent="1" source="RRF14F_0tP4bHI7PFCEU-168" target="RRF14F_0tP4bHI7PFCEU-171" edge="1">
                    <mxGeometry relative="1" as="geometry"/>
                </mxCell>
                <mxCell id="RRF14F_0tP4bHI7PFCEU-168" value="HEX_START" style="ellipse;whiteSpace=wrap;html=1;" parent="1" vertex="1">
                    <mxGeometry x="1408.88" y="815.24" width="103" height="104.88" as="geometry"/>
                </mxCell>
                <mxCell id="RRF14F_0tP4bHI7PFCEU-169" value="" style="curved=1;endArrow=classic;html=1;rounded=0;exitX=1;exitY=1;exitDx=0;exitDy=0;entryX=0;entryY=0;entryDx=0;entryDy=0;" parent="1" source="RRF14F_0tP4bHI7PFCEU-154" target="RRF14F_0tP4bHI7PFCEU-168" edge="1">
                    <mxGeometry width="50" height="50" relative="1" as="geometry">
                        <mxPoint x="1288.88" y="860.12" as="sourcePoint"/>
                        <mxPoint x="1338.88" y="810.12" as="targetPoint"/>
                        <Array as="points">
                            <mxPoint x="1348.88" y="790.12"/>
                        </Array>
                    </mxGeometry>
                </mxCell>
                <mxCell id="RRF14F_0tP4bHI7PFCEU-170" value="'x'" style="text;html=1;strokeColor=none;fillColor=none;align=center;verticalAlign=middle;whiteSpace=wrap;rounded=0;" parent="1" vertex="1">
                    <mxGeometry x="1348.88" y="777.74" width="60" height="30" as="geometry"/>
                </mxCell>
                <mxCell id="RRF14F_0tP4bHI7PFCEU-171" value="HEX_END" style="ellipse;whiteSpace=wrap;html=1;" parent="1" vertex="1">
                    <mxGeometry x="1408.88" y="945.12" width="103" height="105" as="geometry"/>
                </mxCell>
                <mxCell id="RRF14F_0tP4bHI7PFCEU-175" value="0-9a-fA-F" style="text;html=1;strokeColor=none;fillColor=none;align=center;verticalAlign=middle;whiteSpace=wrap;rounded=0;" parent="1" vertex="1">
                    <mxGeometry x="1468.88" y="920.12" width="60" height="30" as="geometry"/>
                </mxCell>
                <mxCell id="RRF14F_0tP4bHI7PFCEU-176" value="" style="curved=1;endArrow=classic;html=1;rounded=0;exitX=0;exitY=0.5;exitDx=0;exitDy=0;entryX=1;entryY=1;entryDx=0;entryDy=0;" parent="1" source="RRF14F_0tP4bHI7PFCEU-168" target="RRF14F_0tP4bHI7PFCEU-142" edge="1">
                    <mxGeometry width="50" height="50" relative="1" as="geometry">
                        <mxPoint x="1288.88" y="930.12" as="sourcePoint"/>
                        <mxPoint x="1338.88" y="880.12" as="targetPoint"/>
                        <Array as="points">
                            <mxPoint x="1348.88" y="880.12"/>
                            <mxPoint x="1248.88" y="900.12"/>
                        </Array>
                    </mxGeometry>
                </mxCell>
                <mxCell id="RRF14F_0tP4bHI7PFCEU-178" value="" style="curved=1;endArrow=classic;html=1;rounded=0;exitX=0;exitY=0.5;exitDx=0;exitDy=0;entryX=0.76;entryY=0.932;entryDx=0;entryDy=0;entryPerimeter=0;" parent="1" source="RRF14F_0tP4bHI7PFCEU-171" target="RRF14F_0tP4bHI7PFCEU-142" edge="1">
                    <mxGeometry width="50" height="50" relative="1" as="geometry">
                        <mxPoint x="1308.88" y="990.12" as="sourcePoint"/>
                        <mxPoint x="1358.88" y="940.12" as="targetPoint"/>
                        <Array as="points">
                            <mxPoint x="1358.88" y="990.12"/>
                            <mxPoint x="1378.88" y="910.12"/>
                            <mxPoint x="1198.88" y="920.12"/>
                        </Array>
                    </mxGeometry>
                </mxCell>
                <mxCell id="RRF14F_0tP4bHI7PFCEU-181" value="ANY - {0-9a-fA-F&quot;}" style="text;html=1;strokeColor=none;fillColor=none;align=center;verticalAlign=middle;whiteSpace=wrap;rounded=0;" parent="1" vertex="1">
                    <mxGeometry x="1188.8799999999999" y="870" width="110" height="30" as="geometry"/>
                </mxCell>
                <mxCell id="RRF14F_0tP4bHI7PFCEU-182" value="ANY - {&quot;}" style="text;html=1;strokeColor=none;fillColor=none;align=center;verticalAlign=middle;whiteSpace=wrap;rounded=0;" parent="1" vertex="1">
                    <mxGeometry x="1176.93" y="890.24" width="60" height="30" as="geometry"/>
                </mxCell>
                <mxCell id="RRF14F_0tP4bHI7PFCEU-183" value="" style="curved=1;endArrow=classic;html=1;rounded=0;exitX=0;exitY=0;exitDx=0;exitDy=0;entryX=0.326;entryY=0.03;entryDx=0;entryDy=0;entryPerimeter=0;" parent="1" source="RRF14F_0tP4bHI7PFCEU-161" target="RRF14F_0tP4bHI7PFCEU-142" edge="1">
                    <mxGeometry width="50" height="50" relative="1" as="geometry">
                        <mxPoint x="1088.88" y="840.12" as="sourcePoint"/>
                        <mxPoint x="1138.88" y="790.12" as="targetPoint"/>
                        <Array as="points">
                            <mxPoint x="1388.88" y="660.12"/>
                            <mxPoint x="1248.88" y="650.12"/>
                            <mxPoint x="1058.88" y="760.12"/>
                        </Array>
                    </mxGeometry>
                </mxCell>
                <mxCell id="RRF14F_0tP4bHI7PFCEU-184" value="ANY - {&quot;}" style="text;html=1;strokeColor=none;fillColor=none;align=center;verticalAlign=middle;whiteSpace=wrap;rounded=0;" parent="1" vertex="1">
                    <mxGeometry x="1183" y="645.12" width="60" height="30" as="geometry"/>
                </mxCell>
                <mxCell id="RRF14F_0tP4bHI7PFCEU-185" value="" style="curved=1;endArrow=classic;html=1;rounded=0;exitX=1;exitY=0;exitDx=0;exitDy=0;" parent="1" source="RRF14F_0tP4bHI7PFCEU-168" edge="1">
                    <mxGeometry width="50" height="50" relative="1" as="geometry">
                        <mxPoint x="1318.88" y="800.12" as="sourcePoint"/>
                        <mxPoint x="1428.88" y="630.12" as="targetPoint"/>
                        <Array as="points">
                            <mxPoint x="1518.88" y="810.12"/>
                            <mxPoint x="1528.88" y="650.12"/>
                        </Array>
                    </mxGeometry>
                </mxCell>
                <mxCell id="RRF14F_0tP4bHI7PFCEU-187" value="" style="curved=1;endArrow=classic;html=1;rounded=0;exitX=1;exitY=0.5;exitDx=0;exitDy=0;strokeColor=default;" parent="1" source="RRF14F_0tP4bHI7PFCEU-171" edge="1">
                    <mxGeometry width="50" height="50" relative="1" as="geometry">
                        <mxPoint x="1358.88" y="900.12" as="sourcePoint"/>
                        <mxPoint x="1428.88" y="630.12" as="targetPoint"/>
                        <Array as="points">
                            <mxPoint x="1538.88" y="998.12"/>
                            <mxPoint x="1538.88" y="600.12"/>
                        </Array>
                    </mxGeometry>
                </mxCell>
                <mxCell id="RRF14F_0tP4bHI7PFCEU-188" value="&quot;" style="text;html=1;strokeColor=none;fillColor=none;align=center;verticalAlign=middle;whiteSpace=wrap;rounded=0;" parent="1" vertex="1">
                    <mxGeometry x="1518.88" y="955.24" width="10" height="10" as="geometry"/>
                </mxCell>
                <mxCell id="RRF14F_0tP4bHI7PFCEU-189" value="&quot;" style="text;html=1;strokeColor=none;fillColor=none;align=center;verticalAlign=middle;whiteSpace=wrap;rounded=0;" parent="1" vertex="1">
                    <mxGeometry x="1518.88" y="785.12" width="10" height="10" as="geometry"/>
                </mxCell>
                <mxCell id="RRF14F_0tP4bHI7PFCEU-195" style="edgeStyle=orthogonalEdgeStyle;curved=1;rounded=0;orthogonalLoop=1;jettySize=auto;html=1;strokeColor=default;" parent="1" source="RRF14F_0tP4bHI7PFCEU-190" target="RRF14F_0tP4bHI7PFCEU-193" edge="1">
                    <mxGeometry relative="1" as="geometry"/>
                </mxCell>
                <mxCell id="RRF14F_0tP4bHI7PFCEU-190" value="OCT_START" style="ellipse;whiteSpace=wrap;html=1;" parent="1" vertex="1">
                    <mxGeometry x="1238.4300000000003" y="1005.24" width="103" height="104.88" as="geometry"/>
                </mxCell>
                <mxCell id="RRF14F_0tP4bHI7PFCEU-191" value="" style="curved=1;endArrow=classic;html=1;rounded=0;strokeColor=default;exitX=0.709;exitY=0.949;exitDx=0;exitDy=0;exitPerimeter=0;entryX=1;entryY=0;entryDx=0;entryDy=0;" parent="1" source="RRF14F_0tP4bHI7PFCEU-154" target="RRF14F_0tP4bHI7PFCEU-190" edge="1">
                    <mxGeometry width="50" height="50" relative="1" as="geometry">
                        <mxPoint x="1058.88" y="900.12" as="sourcePoint"/>
                        <mxPoint x="1108.88" y="850.12" as="targetPoint"/>
                        <Array as="points">
                            <mxPoint x="1388.88" y="900.12"/>
                        </Array>
                    </mxGeometry>
                </mxCell>
                <mxCell id="RRF14F_0tP4bHI7PFCEU-192" value="0-3" style="text;html=1;strokeColor=none;fillColor=none;align=center;verticalAlign=middle;whiteSpace=wrap;rounded=0;" parent="1" vertex="1">
                    <mxGeometry x="1308.88" y="840.12" width="60" height="30" as="geometry"/>
                </mxCell>
                <mxCell id="RRF14F_0tP4bHI7PFCEU-193" value="OCT_MID" style="ellipse;whiteSpace=wrap;html=1;" parent="1" vertex="1">
                    <mxGeometry x="1098.88" y="1005.24" width="103" height="104.88" as="geometry"/>
                </mxCell>
                <mxCell id="RRF14F_0tP4bHI7PFCEU-196" value="0-7" style="text;html=1;strokeColor=none;fillColor=none;align=center;verticalAlign=middle;whiteSpace=wrap;rounded=0;" parent="1" vertex="1">
                    <mxGeometry x="1188.88" y="1035.12" width="60" height="30" as="geometry"/>
                </mxCell>
                <mxCell id="RRF14F_0tP4bHI7PFCEU-197" value="" style="curved=1;endArrow=classic;html=1;rounded=0;strokeColor=default;exitX=0.5;exitY=0;exitDx=0;exitDy=0;entryX=0.656;entryY=0.975;entryDx=0;entryDy=0;entryPerimeter=0;" parent="1" source="RRF14F_0tP4bHI7PFCEU-190" target="RRF14F_0tP4bHI7PFCEU-142" edge="1">
                    <mxGeometry width="50" height="50" relative="1" as="geometry">
                        <mxPoint x="1128.88" y="990.12" as="sourcePoint"/>
                        <mxPoint x="1178.88" y="940.12" as="targetPoint"/>
                        <Array as="points">
                            <mxPoint x="1298.88" y="950.12"/>
                            <mxPoint x="1178.88" y="940.12"/>
                        </Array>
                    </mxGeometry>
                </mxCell>
                <mxCell id="RRF14F_0tP4bHI7PFCEU-198" value="ANY - {0-7&quot;}" style="text;html=1;strokeColor=none;fillColor=none;align=center;verticalAlign=middle;whiteSpace=wrap;rounded=0;" parent="1" vertex="1">
                    <mxGeometry x="1207.7600000000002" y="920.12" width="80" height="30" as="geometry"/>
                </mxCell>
                <mxCell id="RRF14F_0tP4bHI7PFCEU-199" value="" style="curved=1;endArrow=classic;html=1;rounded=0;strokeColor=default;exitX=0.3;exitY=0.051;exitDx=0;exitDy=0;exitPerimeter=0;entryX=1;entryY=1;entryDx=0;entryDy=0;" parent="1" source="RRF14F_0tP4bHI7PFCEU-190" target="RRF14F_0tP4bHI7PFCEU-149" edge="1">
                    <mxGeometry width="50" height="50" relative="1" as="geometry">
                        <mxPoint x="1228.88" y="940.12" as="sourcePoint"/>
                        <mxPoint x="1278.88" y="890.12" as="targetPoint"/>
                        <Array as="points">
                            <mxPoint x="1248.88" y="970.12"/>
                            <mxPoint x="1058.88" y="920.12"/>
                        </Array>
                    </mxGeometry>
                </mxCell>
                <mxCell id="RRF14F_0tP4bHI7PFCEU-200" value="&quot;" style="text;html=1;strokeColor=none;fillColor=none;align=center;verticalAlign=middle;whiteSpace=wrap;rounded=0;" parent="1" vertex="1">
                    <mxGeometry x="1213.88" y="960.12" width="60" height="30" as="geometry"/>
                </mxCell>
                <mxCell id="RRF14F_0tP4bHI7PFCEU-204" value="" style="curved=1;endArrow=classic;html=1;rounded=0;strokeColor=default;exitX=0;exitY=0.5;exitDx=0;exitDy=0;entryX=0.5;entryY=1;entryDx=0;entryDy=0;" parent="1" source="RRF14F_0tP4bHI7PFCEU-193" target="RRF14F_0tP4bHI7PFCEU-149" edge="1">
                    <mxGeometry width="50" height="50" relative="1" as="geometry">
                        <mxPoint x="1098.88" y="970.12" as="sourcePoint"/>
                        <mxPoint x="1148.88" y="920.12" as="targetPoint"/>
                        <Array as="points">
                            <mxPoint x="998.88" y="1070.12"/>
                            <mxPoint x="896.88" y="970.12"/>
                        </Array>
                    </mxGeometry>
                </mxCell>
                <mxCell id="RRF14F_0tP4bHI7PFCEU-206" value="&quot;" style="text;html=1;strokeColor=none;fillColor=none;align=center;verticalAlign=middle;whiteSpace=wrap;rounded=0;" parent="1" vertex="1">
                    <mxGeometry x="930.38" y="1005.12" width="60" height="30" as="geometry"/>
                </mxCell>
                <mxCell id="RRF14F_0tP4bHI7PFCEU-207" value="ANY - {&quot;}" style="text;html=1;strokeColor=none;fillColor=none;align=center;verticalAlign=middle;whiteSpace=wrap;rounded=0;" parent="1" vertex="1">
                    <mxGeometry x="1070.38" y="960.12" width="60" height="30" as="geometry"/>
                </mxCell>
                <mxCell id="RRF14F_0tP4bHI7PFCEU-208" value="" style="curved=1;endArrow=classic;html=1;rounded=0;strokeColor=default;exitX=0.5;exitY=0;exitDx=0;exitDy=0;entryX=0.5;entryY=1;entryDx=0;entryDy=0;" parent="1" source="RRF14F_0tP4bHI7PFCEU-193" target="RRF14F_0tP4bHI7PFCEU-142" edge="1">
                    <mxGeometry width="50" height="50" relative="1" as="geometry">
                        <mxPoint x="1098.88" y="930.12" as="sourcePoint"/>
                        <mxPoint x="1118.88" y="910.12" as="targetPoint"/>
                        <Array as="points">
                            <mxPoint x="1118.88" y="960.12"/>
                        </Array>
                    </mxGeometry>
                </mxCell>
                <mxCell id="RRF14F_0tP4bHI7PFCEU-211" value="ANY - {0-3, 'x', 'n', 'r', 't', 'v', 'e', '\', '$', &quot;}" style="text;html=1;strokeColor=none;fillColor=none;align=center;verticalAlign=middle;whiteSpace=wrap;rounded=0;" parent="1" vertex="1">
                    <mxGeometry x="1236.93" y="815.12" width="86.01" height="30" as="geometry"/>
                </mxCell>
                <mxCell id="qTmNi32ZSrjLV8auPfAw-3" value="" style="curved=1;endArrow=classic;html=1;rounded=0;exitX=0.818;exitY=0.098;exitDx=0;exitDy=0;exitPerimeter=0;entryX=0;entryY=0.5;entryDx=0;entryDy=0;" parent="1" source="rxYX9RSnvcoezxCYLgSo-1" target="RRF14F_0tP4bHI7PFCEU-97" edge="1">
                    <mxGeometry width="50" height="50" relative="1" as="geometry">
                        <mxPoint x="1000" y="380" as="sourcePoint"/>
                        <mxPoint x="1050" y="330" as="targetPoint"/>
                        <Array as="points">
                            <mxPoint x="900" y="370"/>
                            <mxPoint x="780" y="90"/>
                        </Array>
                    </mxGeometry>
                </mxCell>
                <mxCell id="qTmNi32ZSrjLV8auPfAw-4" value="EOF" style="text;html=1;strokeColor=none;fillColor=none;align=center;verticalAlign=middle;whiteSpace=wrap;rounded=0;" parent="1" vertex="1">
                    <mxGeometry x="810" y="68.75" width="60" height="30" as="geometry"/>
                </mxCell>
                <mxCell id="Cmlr2WFl61Rv4wx6hCP2-2" value="EXPECT_EOF" style="ellipse;whiteSpace=wrap;html=1;" parent="1" vertex="1">
                    <mxGeometry x="1009.9999999999999" y="60" width="103" height="105" as="geometry"/>
                </mxCell>
                <mxCell id="Cmlr2WFl61Rv4wx6hCP2-3" value="" style="curved=1;endArrow=classic;html=1;rounded=0;entryX=0.5;entryY=1;entryDx=0;entryDy=0;" parent="1" target="Cmlr2WFl61Rv4wx6hCP2-2" edge="1">
                    <mxGeometry width="50" height="50" relative="1" as="geometry">
                        <mxPoint x="970" y="220" as="sourcePoint"/>
                        <mxPoint x="1020" y="170" as="targetPoint"/>
                        <Array as="points">
                            <mxPoint x="1020" y="240"/>
                        </Array>
                    </mxGeometry>
                </mxCell>
                <mxCell id="Cmlr2WFl61Rv4wx6hCP2-4" value="'\n'" style="text;html=1;strokeColor=none;fillColor=none;align=center;verticalAlign=middle;whiteSpace=wrap;rounded=0;" parent="1" vertex="1">
                    <mxGeometry x="985.88" y="190" width="60" height="30" as="geometry"/>
                </mxCell>
                <mxCell id="Cmlr2WFl61Rv4wx6hCP2-5" value="" style="curved=1;endArrow=classic;html=1;rounded=0;exitX=0.5;exitY=0;exitDx=0;exitDy=0;entryX=0.918;entryY=0.199;entryDx=0;entryDy=0;entryPerimeter=0;" parent="1" source="Cmlr2WFl61Rv4wx6hCP2-2" target="RRF14F_0tP4bHI7PFCEU-97" edge="1">
                    <mxGeometry width="50" height="50" relative="1" as="geometry">
                        <mxPoint x="1080" y="70" as="sourcePoint"/>
                        <mxPoint x="1130" y="20" as="targetPoint"/>
                        <Array as="points">
                            <mxPoint x="1080" y="20"/>
                            <mxPoint x="1000" y="20"/>
                        </Array>
                    </mxGeometry>
                </mxCell>
                <mxCell id="Cmlr2WFl61Rv4wx6hCP2-6" value="EOF" style="text;html=1;strokeColor=none;fillColor=none;align=center;verticalAlign=middle;whiteSpace=wrap;rounded=0;" parent="1" vertex="1">
                    <mxGeometry x="1055.88" y="15" width="60" height="30" as="geometry"/>
                </mxCell>
                <mxCell id="51oV5D-ILafUG9_cMZZO-1" value="0-9" style="text;html=1;strokeColor=none;fillColor=none;align=center;verticalAlign=middle;whiteSpace=wrap;rounded=0;" parent="1" vertex="1">
                    <mxGeometry x="1533" y="442.5" width="80" height="30" as="geometry"/>
                </mxCell>
                <mxCell id="ovSlswhcgYq3oKacH8lP-2" value="" style="ellipse;whiteSpace=wrap;html=1;" parent="1" vertex="1">
                    <mxGeometry x="788.5" y="1020.12" width="103" height="105" as="geometry"/>
                </mxCell>
                <mxCell id="ovSlswhcgYq3oKacH8lP-3" value="COLON" style="ellipse;whiteSpace=wrap;html=1;aspect=fixed;" parent="1" vertex="1">
                    <mxGeometry x="792.62" y="1025.24" width="94.76" height="94.76" as="geometry"/>
                </mxCell>
                <mxCell id="ovSlswhcgYq3oKacH8lP-4" value="" style="ellipse;whiteSpace=wrap;html=1;" parent="1" vertex="1">
                    <mxGeometry x="657.38" y="1020.12" width="103" height="105" as="geometry"/>
                </mxCell>
                <mxCell id="ovSlswhcgYq3oKacH8lP-5" value="COMMA" style="ellipse;whiteSpace=wrap;html=1;aspect=fixed;" parent="1" vertex="1">
                    <mxGeometry x="661.5" y="1025.24" width="94.76" height="94.76" as="geometry"/>
                </mxCell>
                <mxCell id="ovSlswhcgYq3oKacH8lP-6" value="" style="curved=1;endArrow=classic;html=1;rounded=0;exitX=0.76;exitY=0.92;exitDx=0;exitDy=0;exitPerimeter=0;" parent="1" source="rxYX9RSnvcoezxCYLgSo-1" target="ovSlswhcgYq3oKacH8lP-4" edge="1">
                    <mxGeometry width="50" height="50" relative="1" as="geometry">
                        <mxPoint x="850" y="780" as="sourcePoint"/>
                        <mxPoint x="900" y="730" as="targetPoint"/>
                        <Array as="points">
                            <mxPoint x="790" y="850"/>
                        </Array>
                    </mxGeometry>
                </mxCell>
                <mxCell id="ovSlswhcgYq3oKacH8lP-7" value="" style="curved=1;endArrow=classic;html=1;rounded=0;exitX=0.78;exitY=0.92;exitDx=0;exitDy=0;exitPerimeter=0;" parent="1" source="rxYX9RSnvcoezxCYLgSo-1" edge="1">
                    <mxGeometry width="50" height="50" relative="1" as="geometry">
                        <mxPoint x="850" y="630" as="sourcePoint"/>
                        <mxPoint x="827" y="1020" as="targetPoint"/>
                        <Array as="points">
                            <mxPoint x="850" y="710"/>
                            <mxPoint x="800" y="940"/>
                        </Array>
                    </mxGeometry>
                </mxCell>
                <mxCell id="ovSlswhcgYq3oKacH8lP-8" value="','" style="text;html=1;strokeColor=none;fillColor=none;align=center;verticalAlign=middle;whiteSpace=wrap;rounded=0;" parent="1" vertex="1">
                    <mxGeometry x="730" y="962.5" width="60" height="30" as="geometry"/>
                </mxCell>
                <mxCell id="ovSlswhcgYq3oKacH8lP-9" value="':'" style="text;html=1;strokeColor=none;fillColor=none;align=center;verticalAlign=middle;whiteSpace=wrap;rounded=0;" parent="1" vertex="1">
                    <mxGeometry x="797" y="955.24" width="60" height="30" as="geometry"/>
                </mxCell>
                <mxCell id="3" value="' * '" style="text;html=1;strokeColor=none;fillColor=none;align=center;verticalAlign=middle;whiteSpace=wrap;rounded=0;" vertex="1" parent="1">
                    <mxGeometry x="648.88" y="495" width="60" height="30" as="geometry"/>
                </mxCell>
                <mxCell id="4" value="' - '" style="text;html=1;strokeColor=none;fillColor=none;align=center;verticalAlign=middle;whiteSpace=wrap;rounded=0;" vertex="1" parent="1">
                    <mxGeometry x="648.88" y="550" width="60" height="30" as="geometry"/>
                </mxCell>
                <mxCell id="5" value="" style="ellipse;whiteSpace=wrap;html=1;" vertex="1" parent="1">
                    <mxGeometry x="470" y="415" width="103" height="105" as="geometry"/>
                </mxCell>
                <mxCell id="6" value="MUL_OPER" style="ellipse;whiteSpace=wrap;html=1;aspect=fixed;" vertex="1" parent="1">
                    <mxGeometry x="474.12" y="420.12" width="94.76" height="94.76" as="geometry"/>
                </mxCell>
                <mxCell id="7" value="" style="ellipse;whiteSpace=wrap;html=1;" vertex="1" parent="1">
                    <mxGeometry x="531.5" y="500" width="103" height="105" as="geometry"/>
                </mxCell>
                <mxCell id="8" value="SUB_OPER" style="ellipse;whiteSpace=wrap;html=1;aspect=fixed;" vertex="1" parent="1">
                    <mxGeometry x="536" y="505.12" width="94.76" height="94.76" as="geometry"/>
                </mxCell>
            </root>
        </mxGraphModel>
    </diagram>
</mxfile>